<?xml version="1.0" standalone="no"?>
<!DOCTYPE svg PUBLIC "-//W3C//DTD SVG 20010904//EN"
 "http://www.w3.org/TR/2001/REC-SVG-20010904/DTD/svg10.dtd">
<svg version="1.0" xmlns="http://www.w3.org/2000/svg"
 width="1073.000000pt" height="283.000000pt" viewBox="0 0 1073.000000 283.000000"
 preserveAspectRatio="xMidYMid meet">

<g transform="translate(0.000000,283.000000) scale(0.100000,-0.100000)"
fill="#000000" stroke="none">
<path d="M8866 2024 c-11 -11 -16 -35 -16 -79 0 -71 14 -95 56 -95 55 0 64 14
64 99 0 63 -3 80 -16 85 -29 11 -72 6 -88 -10z"/>
<path d="M824 1936 c-81 -20 -139 -59 -163 -109 -20 -42 -21 -58 -21 -407 0
-350 1 -365 21 -408 42 -86 155 -128 319 -119 239 13 312 92 297 323 -9 132
-33 179 -105 209 -38 17 -222 30 -239 18 -16 -11 -23 -53 -12 -75 7 -13 28
-17 105 -20 85 -3 98 -5 114 -26 22 -27 34 -108 28 -197 -7 -109 -49 -135
-218 -135 -104 0 -169 21 -189 58 -7 14 -11 140 -11 375 0 335 1 356 19 379
26 32 86 49 175 50 87 0 149 -15 176 -44 21 -23 22 -28 25 -106 0 -26 5 -53 9
-60 12 -19 84 -15 94 6 12 22 8 120 -7 164 -15 46 -66 93 -121 114 -59 22
-228 28 -296 10z"/>
<path d="M4880 1912 l-25 -20 0 -472 0 -472 25 -20 c23 -18 37 -19 240 -16
193 3 220 5 260 24 59 27 97 73 105 127 3 23 5 200 3 393 l-3 351 -29 37 c-54
71 -91 80 -336 84 -203 3 -217 2 -240 -16z m375 -81 c68 -8 82 -13 102 -35
l23 -27 0 -349 0 -349 -24 -28 -24 -28 -186 -3 -185 -3 0 410 c0 312 3 411 12
414 19 8 195 7 282 -2z"/>
<path d="M1702 1750 c-59 -12 -106 -44 -134 -88 -23 -37 -23 -41 -26 -396 -2
-286 0 -361 10 -367 19 -13 72 -11 86 3 9 9 12 99 12 345 0 362 2 377 55 401
31 14 104 16 139 2 37 -14 58 -53 61 -116 1 -30 7 -60 14 -67 10 -10 77 -14
87 -4 2 2 5 35 5 74 1 105 -32 167 -107 198 -46 19 -147 26 -202 15z"/>
<path d="M2390 1751 c-94 -18 -155 -55 -188 -116 -15 -26 -17 -68 -17 -310 0
-339 0 -339 110 -395 66 -34 71 -35 184 -35 104 0 122 3 172 26 122 58 132 91
127 437 -3 262 -5 269 -56 324 -52 56 -217 90 -332 69z m227 -116 c17 -10 36
-29 42 -42 14 -31 15 -501 1 -538 -16 -42 -80 -65 -180 -65 -100 0 -164 23
-180 65 -15 38 -13 511 2 538 27 52 74 67 193 64 67 -2 98 -8 122 -22z"/>
<path d="M4200 1754 c-120 -21 -179 -54 -210 -118 -19 -41 -20 -60 -20 -553 0
-457 2 -512 16 -517 26 -10 69 -7 82 6 9 9 12 137 12 515 l0 504 24 24 c30 30
84 45 165 45 77 0 133 -16 161 -45 20 -21 21 -33 21 -280 0 -253 0 -258 -22
-281 -31 -33 -78 -44 -182 -44 -102 0 -127 -9 -127 -48 0 -53 7 -55 141 -50
101 4 134 9 177 28 54 23 97 64 114 109 5 15 9 140 8 291 0 235 -3 269 -19
300 -22 43 -81 85 -141 100 -50 13 -162 21 -200 14z"/>
<path d="M5949 1747 c-63 -18 -108 -53 -130 -101 -17 -37 -19 -71 -19 -393 l0
-353 26 -6 c15 -4 39 -3 53 2 l26 9 5 352 c5 347 5 353 27 375 30 29 126 37
171 14 41 -21 52 -44 52 -108 0 -29 4 -58 8 -65 11 -18 58 -26 81 -13 41 22
23 178 -27 233 -47 53 -183 79 -273 54z"/>
<path d="M9444 1746 c-80 -19 -139 -59 -163 -109 -20 -41 -21 -60 -21 -312 0
-253 1 -271 21 -313 12 -24 37 -54 58 -67 118 -79 365 -69 460 18 49 46 53 69
51 365 -1 302 -3 318 -62 367 -61 51 -236 77 -344 51z m217 -96 c19 -6 46 -22
60 -36 l24 -26 0 -263 c0 -249 -1 -264 -20 -285 -11 -13 -34 -29 -52 -36 -43
-18 -193 -18 -237 0 -65 27 -66 32 -66 322 0 295 -1 292 75 319 47 16 164 19
216 5z"/>
<path d="M3077 1733 c-4 -3 -7 -158 -7 -343 0 -328 0 -337 23 -380 42 -85 118
-115 282 -114 118 0 181 18 234 67 50 47 52 64 51 425 0 184 -3 339 -6 343 -8
14 -84 11 -89 -3 -2 -7 -6 -160 -7 -339 -3 -311 -4 -328 -23 -349 -11 -13 -35
-29 -53 -37 -45 -19 -190 -18 -235 0 -68 29 -67 26 -67 383 0 177 -3 329 -6
338 -4 11 -19 16 -48 16 -24 0 -46 -3 -49 -7z"/>
<path d="M6475 1727 c-4 -8 -5 -30 -3 -49 l3 -33 155 -5 c221 -8 239 -20 240
-167 0 -51 -3 -93 -7 -93 -40 -1 -293 -32 -322 -40 -79 -21 -117 -72 -127
-167 -9 -88 11 -171 51 -209 44 -41 100 -54 238 -54 123 0 127 2 127 55 0 36
-28 45 -139 45 -55 0 -112 5 -125 12 -59 26 -61 189 -3 220 20 10 209 37 273
38 l31 0 5 -142 c6 -187 34 -251 101 -234 42 10 49 35 27 99 -18 50 -20 83
-20 303 0 271 -6 307 -54 354 -54 54 -123 72 -293 77 -131 5 -153 4 -158 -10z"/>
<path d="M7235 1730 c-3 -6 19 -164 50 -353 66 -399 78 -436 153 -469 36 -16
60 -19 117 -16 142 9 167 47 198 298 11 94 24 170 28 170 4 0 10 -21 13 -47
33 -274 38 -299 59 -337 33 -59 64 -77 141 -83 115 -10 177 20 209 97 19 44
131 716 123 735 -7 19 -79 20 -93 3 -6 -7 -33 -155 -62 -328 -29 -173 -57
-330 -62 -348 -16 -49 -34 -62 -88 -62 -82 0 -81 -4 -145 399 -47 293 -51 304
-104 295 -14 -3 -29 -7 -33 -9 -8 -6 -19 -65 -69 -379 -46 -294 -49 -301 -130
-301 -45 0 -56 4 -71 25 -13 18 -34 118 -74 360 -31 184 -61 340 -67 347 -12
15 -84 17 -93 3z"/>
<path d="M8867 1733 c-4 -3 -7 -166 -7 -362 1 -274 4 -365 14 -394 27 -75 71
-97 114 -57 26 25 26 18 2 71 -18 41 -20 67 -20 381 0 185 -3 343 -6 352 -4
11 -19 16 -48 16 -24 0 -46 -3 -49 -7z"/>
<path d="M8523 1063 c-17 -6 -18 -144 -1 -161 15 -15 63 -16 89 -2 16 9 19 22
19 78 0 40 -5 73 -12 80 -12 12 -71 15 -95 5z"/>
</g>
</svg>
